<?xml version="1.0" standalone="no"?>
<!DOCTYPE svg PUBLIC "-//W3C//DTD SVG 20010904//EN"
 "http://www.w3.org/TR/2001/REC-SVG-20010904/DTD/svg10.dtd">
<svg version="1.0" xmlns="http://www.w3.org/2000/svg"
 width="300.000000pt" height="300.000000pt" viewBox="0 0 300.000000 300.000000"
 preserveAspectRatio="xMidYMid meet">
<metadata>
Created by potrace 1.14, written by Peter Selinger 2001-2017
</metadata>
<g transform="translate(0.000000,300.000000) scale(0.100000,-0.100000)"
fill="#000000" stroke="none">
<path d="M1951 2953 c-6 -10 -11 -15 -11 -12 0 4 -19 -11 -41 -32 -23 -21 -45
-36 -50 -33 -5 3 -9 -3 -9 -12 0 -10 -2 -15 -5 -12 -3 3 -18 -6 -33 -21 -15
-14 -63 -55 -106 -91 -43 -36 -87 -73 -98 -82 -12 -10 -25 -18 -30 -18 -4 0
-7 -3 -6 -7 2 -5 0 -9 -4 -11 -5 -1 -21 -16 -37 -33 -16 -17 -32 -29 -34 -27
-7 5 -87 -71 -87 -83 0 -6 -4 -7 -10 -4 -5 3 -10 1 -10 -5 0 -6 -12 -23 -27
-38 -37 -37 -73 -84 -73 -95 0 -4 -4 -5 -10 -2 -5 3 -10 -1 -10 -9 0 -9 -4
-16 -10 -16 -5 0 -10 -5 -10 -11 0 -6 -9 -21 -20 -33 -42 -45 -70 -81 -70 -91
0 -6 -9 -16 -20 -23 -11 -7 -20 -19 -20 -26 0 -8 -3 -16 -7 -18 -13 -5 -73
-86 -73 -97 0 -5 -10 -17 -22 -26 -13 -8 -22 -18 -20 -21 2 -3 1 -8 -2 -11
-12 -12 -6 23 9 50 9 18 10 25 2 20 -9 -5 -9 -3 0 9 7 8 9 19 5 23 -4 5 -1 5
7 0 11 -6 13 -2 8 21 -3 16 -1 37 5 48 8 14 7 17 -4 10 -10 -6 -11 -5 -1 8 7
8 10 18 6 22 -4 3 -8 21 -9 39 -1 17 -3 35 -3 40 -1 4 -12 7 -25 7 -22 0 -23
-4 -21 -50 1 -28 -2 -53 -7 -56 -4 -3 -3 -14 2 -25 8 -13 7 -19 0 -19 -6 0 -8
-4 -5 -10 3 -5 1 -10 -5 -10 -7 0 -9 -7 -6 -15 3 -9 -1 -18 -9 -21 -8 -4 -13
-10 -10 -14 3 -5 -3 -23 -14 -41 -11 -18 -18 -36 -15 -41 3 -4 0 -8 -6 -8 -6
0 -9 -4 -6 -8 3 -5 -4 -18 -14 -30 -11 -12 -20 -27 -20 -35 0 -7 -3 -17 -7
-21 -5 -4 -8 -11 -8 -15 0 -13 -82 -101 -95 -101 -5 0 -8 -9 -7 -19 0 -11 4
-18 8 -16 3 3 11 -7 17 -20 8 -16 8 -25 1 -25 -6 0 -6 -7 -1 -17 12 -26 7
-129 -7 -126 -6 2 -9 -7 -7 -20 1 -12 -1 -29 -5 -37 -9 -16 -30 -71 -31 -80 0
-3 -4 -10 -10 -17 -5 -7 -7 -17 -3 -23 3 -5 -1 -13 -9 -16 -9 -3 -16 -12 -16
-20 0 -8 -4 -14 -10 -14 -9 0 -14 15 -11 34 1 4 -3 13 -8 20 -5 6 -9 28 -9 49
0 46 -5 52 -29 37 -17 -11 -17 -11 1 -5 19 6 19 5 1 -15 -11 -12 -13 -20 -6
-20 7 0 9 -5 5 -12 -5 -7 -8 -27 -7 -45 0 -19 -4 -36 -8 -39 -5 -3 -7 -10 -4
-15 4 -5 0 -9 -7 -9 -10 0 -10 -2 1 -9 10 -6 10 -13 3 -28 -6 -11 -7 -25 -2
-33 4 -7 4 -24 -1 -37 -6 -16 -5 -23 4 -23 9 0 8 -3 -1 -9 -8 -4 -13 -12 -13
-17 1 -5 -7 -18 -16 -29 -9 -11 -15 -22 -13 -24 10 -8 -28 -24 -44 -18 -18 7
-22 15 -31 70 -4 24 -11 37 -21 37 -8 0 -13 -4 -10 -9 4 -5 0 -12 -6 -14 -8
-3 -9 -6 -2 -6 8 -1 9 -14 4 -41 -4 -22 -5 -42 -1 -44 3 -2 6 -24 5 -48 0 -27
6 -47 15 -55 9 -7 11 -13 5 -13 -12 0 -7 -50 5 -50 4 0 7 -10 8 -22 1 -11 6
-24 10 -27 4 -3 9 -13 11 -21 2 -8 8 -16 13 -18 5 -2 9 -9 9 -16 0 -7 9 -21
20 -31 11 -10 18 -20 16 -22 -9 -9 90 -97 146 -130 49 -28 55 -16 15 27 -35
38 -62 103 -51 121 4 8 9 7 15 -2 6 -10 9 -11 9 -1 0 6 7 12 15 12 9 0 18 6
21 14 3 9 13 12 22 9 25 -8 83 -73 77 -84 -4 -5 0 -12 8 -15 8 -3 13 -16 11
-29 -1 -14 3 -28 8 -32 7 -4 8 -1 3 7 -5 8 -4 11 1 7 6 -3 9 -26 8 -51 -1 -25
2 -46 7 -46 4 0 6 -8 4 -18 -1 -10 3 -29 11 -42 10 -19 13 -21 14 -7 0 9 9 25
20 34 11 10 20 23 20 30 0 7 3 13 8 13 4 0 7 34 7 75 0 41 3 75 8 75 4 0 3 8
-2 19 -6 10 -7 21 -4 25 3 3 1 6 -6 6 -9 0 -9 5 -1 20 6 11 8 20 4 20 -3 0 -1
7 6 15 22 27 26 23 49 -48 5 -15 6 -27 2 -27 -4 0 -7 -9 -7 -20 0 -11 4 -20 8
-20 5 0 5 -8 -1 -17 -6 -12 -5 -22 4 -30 11 -10 15 -9 20 7 4 11 11 18 16 15
12 -8 7 -55 -6 -55 -6 0 -6 -3 1 -8 9 -6 12 -60 4 -69 -1 -2 -3 -7 -4 -12 0
-5 -4 -13 -9 -17 -4 -4 -7 -16 -7 -26 0 -10 -4 -18 -10 -18 -5 0 -10 -9 -10
-20 0 -11 -5 -20 -11 -20 -5 0 -8 -4 -4 -9 3 -5 0 -15 -7 -23 -12 -13 -15 -21
-23 -58 -2 -8 -4 -17 -6 -20 -1 -3 -3 -27 -4 -55 -2 -27 -3 -55 -4 -61 -1 -6
-11 -11 -23 -10 -13 1 -26 -2 -29 -7 -6 -8 -56 -17 -101 -18 -10 0 -18 -4 -18
-8 0 -4 -21 -8 -47 -8 -27 -1 -75 -4 -108 -8 -67 -7 -62 -7 -127 -3 -26 2 -44
-1 -40 -6 3 -5 -2 -7 -11 -3 -9 3 -19 1 -23 -5 -4 -7 -3 -8 4 -4 7 4 12 2 12
-4 0 -6 5 -8 12 -3 18 11 41 13 53 5 13 -9 87 -8 103 2 7 4 12 3 12 -3 0 -7 8
-7 25 -1 14 5 27 5 30 0 3 -5 18 -5 33 0 16 4 36 4 45 -2 10 -5 17 -5 17 -1 0
4 18 8 40 7 22 0 40 3 40 6 0 4 20 8 45 8 25 1 50 4 55 7 6 4 10 1 10 -6 0 -7
3 -10 6 -7 8 8 65 -53 59 -62 -3 -5 -14 -6 -24 -3 -10 3 -32 -2 -47 -11 -27
-14 -20 -15 126 -15 122 0 151 2 135 11 -11 7 -29 13 -40 14 -11 1 -23 3 -27
3 -13 2 -9 16 12 39 11 11 27 39 36 61 13 32 21 41 40 41 13 0 24 5 24 10 0 6
11 10 25 10 14 0 25 5 25 11 0 5 5 7 10 4 6 -3 10 -2 10 4 0 6 6 8 14 5 8 -3
17 -1 21 5 3 6 11 11 16 11 6 0 7 -4 4 -10 -3 -5 -1 -10 6 -10 8 0 6 -6 -4
-18 -10 -10 -17 -24 -17 -30 0 -7 -5 -12 -11 -12 -5 0 -7 -5 -4 -10 3 -6 2
-10 -2 -10 -5 0 -24 -14 -43 -30 -51 -44 -57 -49 -61 -45 -2 1 -9 -3 -16 -10
-10 -10 -9 -14 2 -19 8 -3 15 -1 15 3 0 5 9 7 20 4 25 -7 140 16 140 27 0 5 8
6 19 3 10 -2 25 3 35 12 9 9 16 13 16 10 0 -4 16 3 35 15 19 12 35 19 35 16 0
-3 9 2 19 12 38 34 49 41 55 35 3 -4 6 -1 6 5 0 7 6 12 13 12 7 0 19 9 27 20
8 11 20 20 28 20 7 0 10 5 7 10 -3 6 0 10 8 10 8 0 18 7 21 16 3 8 11 12 16 9
6 -4 9 -2 8 2 -2 5 17 30 42 56 25 25 54 56 66 69 11 13 33 32 49 43 16 11 40
31 54 45 14 14 29 24 33 22 4 -1 8 2 8 6 0 5 11 22 24 37 14 16 22 34 19 39
-4 6 1 5 10 -3 18 -15 23 -26 7 -16 -6 3 -7 -1 -3 -10 4 -13 8 -14 14 -4 4 7
5 17 3 21 -3 4 0 8 5 8 6 0 11 7 11 15 0 8 7 15 16 15 10 0 14 -5 10 -15 -3
-9 -2 -23 3 -33 5 -9 15 -36 22 -59 17 -58 27 -45 25 32 -1 36 2 65 6 65 5 0
8 11 8 25 0 14 4 25 9 25 5 0 12 17 16 38 4 20 14 45 22 55 9 9 13 20 10 24
-4 3 -2 12 4 20 6 7 8 13 5 13 -4 0 0 7 8 16 9 8 16 23 16 32 0 9 7 26 15 36
8 10 12 23 9 27 -3 5 0 9 6 9 6 0 9 4 6 9 -3 5 1 14 9 21 8 7 15 16 15 21 0
24 151 169 176 169 7 0 14 3 16 8 3 8 74 42 88 42 5 0 21 5 37 11 15 7 37 12
48 13 11 1 26 5 33 9 7 5 12 3 12 -5 0 -8 5 -6 11 5 6 9 14 15 20 12 5 -4 9
-1 9 4 0 6 -10 9 -22 7 -13 -3 -23 -5 -23 -6 0 -1 -18 -4 -40 -6 -22 -1 -53
-6 -70 -9 -16 -3 -50 -7 -75 -8 -25 -1 -48 -6 -52 -12 -5 -6 -8 -4 -8 5 0 12
-2 13 -9 1 -5 -7 -27 -15 -49 -16 -22 -1 -45 -6 -52 -10 -6 -4 -41 -8 -77 -10
-57 -2 -66 0 -70 16 -3 11 -10 19 -15 19 -5 0 -6 5 -3 10 3 6 1 10 -5 10 -7 0
-10 7 -6 15 3 8 2 15 -3 15 -5 0 -11 8 -15 18 -5 17 -12 28 -49 84 -10 16 -16
28 -13 28 3 0 -12 19 -34 42 -21 23 -36 47 -33 53 4 5 3 7 -1 3 -4 -3 -30 16
-57 43 -28 27 -54 47 -58 44 -5 -3 -12 3 -15 12 -4 10 -4 14 0 11 4 -4 16 -2
28 5 11 6 30 12 41 12 11 1 30 5 42 9 20 6 65 8 116 4 9 -1 17 -4 17 -8 0 -4
8 -7 18 -7 26 0 82 -15 82 -22 0 -3 13 -12 28 -19 16 -6 37 -20 48 -30 28 -25
44 -25 44 -1 0 11 5 30 11 41 9 16 8 19 -2 13 -8 -6 -10 -4 -4 5 4 7 8 27 9
44 1 17 5 37 9 44 5 7 9 26 9 42 1 17 4 30 7 30 4 0 8 12 9 27 1 15 8 31 16
35 8 5 12 16 9 28 -3 11 0 20 6 20 6 0 11 9 11 20 0 11 5 20 10 20 6 0 10 6
10 13 0 7 9 23 20 35 11 12 20 25 20 29 0 11 43 48 53 45 4 -1 7 5 7 14 0 8 4
13 9 10 5 -3 12 1 15 10 8 21 8 21 -9 21 -8 0 -15 -5 -15 -10 0 -5 -7 -7 -15
-3 -8 3 -15 1 -15 -4 0 -6 -3 -9 -7 -8 -5 1 -21 -5 -38 -12 -16 -7 -32 -14
-35 -15 -31 -10 -89 -43 -84 -47 3 -4 -4 -9 -15 -13 -12 -3 -27 -12 -33 -18
-7 -7 -31 -25 -53 -42 -53 -39 -74 -56 -97 -77 -10 -10 -21 -18 -24 -18 -4 0
-15 -9 -25 -21 -9 -11 -19 -20 -21 -19 -3 2 -53 -17 -79 -30 -8 -4 -41 -7 -72
-5 -31 1 -55 -1 -53 -4 2 -3 -13 -5 -35 -5 -21 1 -39 -2 -39 -7 0 -4 -7 -5
-17 -2 -10 4 -14 2 -10 -4 5 -7 0 -9 -13 -6 -32 8 -33 21 -6 54 14 17 26 39
26 50 0 14 4 18 13 13 7 -5 6 0 -3 11 -8 10 -10 16 -3 12 8 -5 15 1 19 18 3
14 10 25 16 25 5 0 6 5 3 10 -3 6 -1 10 6 10 7 0 9 3 6 7 -4 3 3 17 15 30 12
13 18 23 15 23 -4 0 1 8 11 18 9 10 26 31 37 46 11 15 33 41 48 57 16 16 26
29 22 29 -3 0 9 15 27 33 18 19 59 61 90 94 31 33 59 59 61 57 2 -2 16 7 30
20 14 13 28 21 31 18 3 -3 6 0 6 7 0 7 5 9 10 6 6 -3 10 -2 10 2 0 7 20 18 70
38 43 17 114 37 125 35 6 -1 18 -2 28 -1 38 2 -11 32 -57 34 -24 1 -48 5 -52
10 -4 4 -13 2 -21 -4 -10 -9 -13 -8 -13 1 0 8 -4 9 -12 3 -7 -5 -28 -9 -45 -9
-18 1 -33 -3 -33 -8 0 -5 -3 -6 -7 -3 -3 4 14 28 39 54 107 112 136 143 132
143 -3 0 13 18 34 40 22 21 38 41 35 43 -2 3 7 14 21 25 14 10 22 22 19 26 -3
3 1 6 11 6 9 0 15 4 11 9 -3 5 3 16 13 23 16 12 52 62 52 72 0 3 -11 0 -25 -6
-14 -6 -25 -15 -25 -20 0 -4 -5 -8 -10 -8 -6 0 -28 -11 -50 -25 -22 -14 -40
-23 -40 -19 0 3 -7 -2 -16 -10 -8 -9 -22 -16 -30 -16 -8 0 -14 -4 -14 -10 0
-5 -7 -10 -15 -10 -8 0 -15 -5 -15 -12 0 -6 -3 -8 -6 -5 -4 4 -20 -3 -35 -14
-16 -11 -34 -17 -40 -13 -8 4 -9 3 -5 -4 6 -11 -6 -16 -26 -13 -5 0 -8 -3 -8
-8 0 -4 -30 -23 -67 -42 -38 -19 -72 -39 -78 -46 -5 -7 -21 -14 -34 -16 -14
-2 -27 -9 -29 -15 -2 -7 -15 -12 -28 -12 -13 0 -24 -5 -24 -10 0 -6 -3 -9 -7
-8 -15 3 -63 -14 -63 -23 0 -5 -7 -9 -15 -9 -14 0 -78 -32 -102 -52 -7 -5 -17
-7 -23 -3 -5 3 -10 1 -10 -5 0 -6 -16 -18 -35 -26 -40 -16 -59 -18 -50 -4 3 6
1 10 -5 10 -6 0 -8 4 -5 10 3 5 -3 20 -14 32 -30 31 -27 44 27 96 26 26 46 48
45 49 -3 3 29 43 60 75 9 10 16 20 15 23 -2 2 4 12 12 22 25 30 71 103 64 103
-3 0 4 13 15 29 12 16 21 36 21 45 0 9 5 16 11 16 5 0 7 5 4 10 -9 15 -23 12
-34 -7z m-154 -1240 c3 -7 -4 -9 -16 -6 -12 3 -18 9 -15 15 7 11 26 6 31 -9z
m-217 -663 c6 0 10 -4 10 -9 0 -5 16 -26 35 -46 20 -20 33 -40 30 -44 -3 -5 2
-12 11 -15 8 -3 12 -10 9 -16 -3 -5 -1 -10 4 -10 6 0 11 -8 11 -18 0 -10 6
-24 13 -31 10 -11 9 -12 -3 -6 -12 6 -13 5 -2 -6 15 -17 17 -149 1 -149 -6 0
-9 -7 -6 -15 4 -8 2 -17 -4 -20 -5 -4 -7 -11 -4 -16 4 -5 1 -9 -6 -9 -7 0 -10
-3 -6 -6 7 -7 -71 -114 -84 -114 -5 0 -9 -7 -9 -15 0 -8 -6 -15 -12 -15 -7 -1
-24 -14 -38 -30 -13 -17 -28 -30 -33 -30 -6 0 -23 -13 -38 -30 -16 -16 -29
-28 -29 -25 0 4 -64 -36 -86 -54 -6 -5 -20 -12 -32 -15 -12 -4 -22 -12 -22
-18 0 -5 -7 -8 -15 -4 -8 3 -15 2 -15 -3 0 -11 -43 -29 -57 -24 -7 3 -13 13
-13 24 0 10 -4 19 -9 19 -5 0 -8 11 -5 25 2 14 0 25 -5 25 -8 0 -21 34 -20 54
1 5 -3 12 -8 15 -13 10 -33 49 -33 66 0 8 -4 15 -9 15 -5 0 -11 13 -13 30 -3
17 -1 30 4 30 5 0 6 5 2 11 -6 10 -7 161 -4 369 0 45 13 80 25 68 4 -3 9 -21
12 -40 3 -18 9 -40 14 -49 4 -9 6 -19 3 -21 -2 -3 2 -20 9 -38 l14 -32 17 23
c9 13 16 18 16 11 0 -6 7 -12 16 -12 8 0 13 -3 10 -8 -2 -4 13 -8 35 -9 23 -1
39 3 39 9 0 6 3 9 6 5 8 -8 70 17 88 35 7 7 11 19 8 26 -2 6 1 12 8 12 6 0 8
5 5 10 -3 6 1 13 9 16 8 3 18 16 22 27 4 12 16 30 26 39 11 9 20 20 21 25 1 4
10 18 21 30 20 23 20 23 38 3 10 -11 23 -20 28 -20z"/>
</g>
</svg>
